<?xml version="1.0" encoding="UTF-8" standalone="no"?>
<!DOCTYPE svg PUBLIC "-//W3C//DTD SVG 1.1//EN" "http://www.w3.org/Graphics/SVG/1.1/DTD/svg11.dtd">
<svg width="100%" height="100%" viewBox="0 0 512 512" version="1.1" xmlns="http://www.w3.org/2000/svg" xmlns:xlink="http://www.w3.org/1999/xlink" xml:space="preserve" xmlns:serif="http://www.serif.com/" style="fill-rule:evenodd;clip-rule:evenodd;stroke-linejoin:round;stroke-miterlimit:2;">
    <g>
        <g transform="matrix(1.03676,0,0,1.03676,-9.41116,-9.41116)">
            <path d="M502,22.076L502,489.924C502,496.589 496.589,502 489.924,502L22.076,502C15.411,502 10,496.589 10,489.924L10,22.076C10,15.411 15.411,10 22.076,10L489.924,10C496.589,10 502,15.411 502,22.076Z" style="fill:rgb(243,243,243);"/>
        </g>
        <g transform="matrix(-1.9045e-16,1.03676,-1.03676,-1.9045e-16,722.543,191.721)">
            <rect x="236" y="236" width="40" height="428" style="fill:rgb(217,207,191);"/>
        </g>
        <g transform="matrix(-1.9045e-16,1.03676,-1.03676,-1.9045e-16,475.794,-55.0287)">
            <rect x="86" y="-2" width="340" height="428" style="fill:rgb(34,73,90);"/>
        </g>
        <g transform="matrix(1.03676,0,0,1.03676,-9.41116,-9.41116)">
            <path d="M318,382L155,220L42,334L42,382L318,382Z" style="fill:rgb(55,99,10);fill-rule:nonzero;"/>
        </g>
        <g transform="matrix(1.03676,0,0,1.03676,-9.41116,-9.41116)">
            <path d="M90,382L314,159L470,316L470,382L90,382Z" style="fill:rgb(97,160,38);fill-rule:nonzero;"/>
        </g>
        <g transform="matrix(1.03676,0,0,1.03676,-9.41116,-9.41116)">
            <circle cx="213" cy="116" r="43" style="fill:rgb(255,227,82);"/>
        </g>
    </g>
</svg>
